# xmcd
#
# Track frame offsets:
#  150
#  22874
#  42348
#  63185
#  86088
#  108722
#  127085
#  144349
#  168721
#  187543
#  210261
#  228589
#  252041
#  271061
#  288011
#
# Disc length: 4193 seconds
#
# Revision: 0
# Processed by: cddbd v1.4PL0 Copyright (c) Steve Scherf et al.
# Submitted via: AltoMP3_Maker 3.0
#
DISCID=c5105f0f
DTITLE=王馨平等 - 女人篇国语经典（1）
DYEAR=1900
DGENRE=
TTITLE0=别问我是谁
TTITLE1=说，你爱我
TTITLE2=哭砂
TTITLE3=爱的代价
TTITLE4=铁窗
TTITLE5=跟着感觉走
TTITLE6=执着
TTITLE7=执迷不悟
TTITLE8=雾里看花
TTITLE9=爱上一个不回家的人
TTITLE10=梦醒时分
TTITLE11=念念不忘的情人
TTITLE12=舍不得把眼睛睁开
TTITLE13=橄榄树
TTITLE14=你是我一辈子的爱
EXTD=
EXTT0=
EXTT1=
EXTT2=
EXTT3=
EXTT4=
EXTT5=
EXTT6=
EXTT7=
EXTT8=
EXTT9=
EXTT10=
EXTT11=
EXTT12=
EXTT13=
EXTT14=
PLAYORDER=
